#!OML:ASF X:\für Bonn\!DataBase\2005_08_12_Daniel\c3d\Daniel.ASF
:FULLY-SPECIFIED
:DEGREES
78
root 4.68895 17.314 1.02791 -32.8501 -87.114 39.4134
lowerback 37.9361 0.784556 -1.78312
upperback 10.179 -1.43153 -4.01661
thorax -7.43902 -1.11871 -2.71432
lowerneck 2.50654 -1.2329 -1.0517
upperneck -0.0326108 -1.6637 6.37508
head -0.370382 -0.889712 2.19316
rclavicle -4.77083e-015 7.95139e-015
rhumerus -17.0268 17.8763 -102.924
rradius 55.7311
rwrist 20.2824
rhand -47.1028 10.5106
rfingers 7.12502
rthumb -19.8061 341.5
lclavicle -4.77083e-015 7.95139e-015
lhumerus -192.717 198.549 -76.7344
lradius 53.3522
lwrist 25.0794
lhand -28.6287 15.7668
lfingers 7.12502
lthumb -1.99315 45.7372
rfemur -21.0612 9.04315 8.07457
rtibia 29.1417
rfoot 337.833 -15.6524
rtoes -8.68603
lfemur -30.257 -22.1969 -11.6505
ltibia 35.6206
lfoot -19.0483 8.19135
ltoes -0.0663975
79
root 4.70673 17.2979 0.996398 -28.5997 -87.0491 35.4134
lowerback 38.235 0.698435 -1.65565
upperback 10.0553 -1.49354 -3.98541
thorax -7.68064 -1.14195 -2.72152
lowerneck 2.91195 -1.24219 -1.03115
upperneck -1.30767 -1.60487 6.35346
head -0.842458 -0.889737 2.19942
rclavicle -1.59028e-015 -5.56597e-015
rhumerus -17.3642 18.0382 -103.093
rradius 55.7909
rwrist 19.8546
rhand -46.4805 9.95173
rfingers 7.12502
rthumb -19.2078 340.88
lclavicle -1.59028e-015 -5.56597e-015
lhumerus -192.864 198.397 -76.5889
lradius 53.3824
lwrist 25.2621
lhand -28.8708 16.0038
lfingers 7.12502
lthumb -2.22691 45.9719
rfemur -21.7514 8.5504 8.31514
rtibia 29.776
rfoot 337.851 -15.421
rtoes -9.05772
lfemur -30.9156 -21.8356 -11.3088
ltibia 36.0375
lfoot -18.9155 7.77779
ltoes -0.262066
80
root 4.72439 17.2788 0.964264 -24.166 -86.9689 31.2179
lowerback 38.5595 0.611943 -1.5146
upperback 9.911 -1.54727 -3.93671
thorax -7.95256 -1.16095 -2.71971
lowerneck 3.28709 -1.25491 -1.03233
upperneck -2.58219 -1.55546 6.3227
head -1.31422 -0.894256 2.211
rclavicle -1.11319e-014 7.95139e-015
rhumerus -17.7088 18.1334 -103.23
rradius 55.8303
rwrist 19.4777
rhand -45.8259 9.24681
rfingers 7.12502
rthumb -18.5782 340.114
lclavicle -1.11319e-014 7.95139e-015
lhumerus -193.043 198.297 -76.4436
lradius 53.3942
lwrist 25.5548
lhand -29.1422 16.1502
lfingers 7.12502
lthumb -2.489 46.1154
rfemur -22.4835 7.94895 8.59896
rtibia 30.5035
rfoot 337.937 -15.1143
rtoes -9.34811
lfemur -31.6115 -21.4968 -10.9406
ltibia 36.5285
lfoot -18.8239 7.33559
ltoes -0.328878
81
root 4.74249 17.2554 0.930367 -20.096 -86.8906 27.3821
lowerback 38.8768 0.553519 -1.39556
upperback 9.77228 -1.57308 -3.88146
thorax -8.21341 -1.16777 -2.71017
lowerneck 3.53349 -1.28155 -0.960432
upperneck -3.80711 -1.531 6.23252
head -1.7534 -0.908564 2.19133
rclavicle 2.06736e-014 1.27222e-014
rhumerus -17.9959 18.1569 -103.347
rradius 55.8444
rwrist 19.0909
rhand -45.0493 8.41898
rfingers 7.12502
rthumb -17.8311 339.216
lclavicle 2.06736e-014 1.27222e-014
lhumerus -193.212 198.196 -76.3019
lradius 53.3538
lwrist 25.787
lhand -29.3634 16.0805
lfingers 7.12502
lthumb -2.70266 46.0431
rfemur -23.268 7.35278 8.89662
rtibia 31.3237
rfoot 337.97 -14.7924
rtoes -9.6665
lfemur -32.3392 -21.1328 -10.5778
ltibia 37.0954
lfoot -18.7309 6.90286
ltoes -0.502275
82
root 4.75999 17.2278 0.896265 -16.7491 -86.7793 24.2537
lowerback 39.1978 0.515071 -1.33858
upperback 9.63902 -1.59296 -3.79031
thorax -8.46521 -1.17277 -2.63207
lowerneck 3.7074 -1.31057 -0.9588
upperneck -5.01794 -1.51948 6.14837
head -2.18102 -0.927437 2.18789
rclavicle -1.51076e-014 -1.66979e-014
rhumerus -18.2406 18.1758 -103.376
rradius 55.8183
rwrist 18.8524
rhand -44.2453 7.40005
rfingers 7.12502
rthumb -17.0573 338.129
lclavicle -1.51076e-014 -1.66979e-014
lhumerus -193.359 198.088 -76.1255
lradius 53.2747
lwrist 26.1003
lhand -29.5664 15.8236
lfingers 7.12502
lthumb -2.89869 45.7837
rfemur -24.0782 6.75316 9.16399
rtibia 32.2297
rfoot 337.951 -14.4522
rtoes -9.95103
lfemur -33.0844 -20.7025 -10.2852
ltibia 37.7314
lfoot -18.6573 6.41277
ltoes -0.738755
83
root 4.77624 17.1956 0.863481 -13.2281 -86.6905 20.9147
lowerback 39.5461 0.478673 -1.24076
upperback 9.50541 -1.5976 -3.71212
thorax -8.72688 -1.17122 -2.59483
lowerneck 3.8558 -1.35012 -0.883184
upperneck -6.2407 -1.52551 6.02835
head -2.61466 -0.956038 2.16179
rclavicle -2.14687e-014 -6.36111e-015
rhumerus -18.4646 18.1308 -103.412
rradius 55.7637
rwrist 18.646
rhand -43.4321 6.38272
rfingers 7.12502
rthumb -16.2745 337.046
lclavicle -2.14687e-014 -6.36111e-015
lhumerus -193.528 197.993 -75.9843
lradius 53.1634
lwrist 26.3999
lhand -29.6929 15.4998
lfingers 7.12502
lthumb -3.02085 45.4581
rfemur -24.8977 6.14947 9.47644
rtibia 33.2167
rfoot 337.938 -14.0503
rtoes -10.1801
lfemur -33.8152 -20.3151 -9.96351
ltibia 38.4469
lfoot -18.6567 5.93174
ltoes -0.903794
84
root 4.79055 17.1617 0.832183 -10.4717 -86.5941 18.3085
lowerback 39.887 0.446054 -1.18578
upperback 9.39467 -1.61443 -3.62867
thorax -8.95901 -1.1765 -2.52465
lowerneck 3.83939 -1.38407 -0.807819
upperneck -7.38566 -1.53874 5.85795
head -2.99812 -0.983537 2.11619
rclavicle -1.66979e-014 -6.36111e-015
rhumerus -18.6229 18.0764 -103.409
rradius 55.6481
rwrist 18.5713
rhand -42.5794 5.42344
rfingers 7.12502
rthumb -15.4533 336.021
lclavicle -1.66979e-014 -6.36111e-015
lhumerus -193.676 197.859 -75.8437
lradius 53.028
lwrist 26.7032
lhand -29.7652 15.1378
lfingers 7.12502
lthumb -3.09073 45.0951
rfemur -25.7244 5.52709 9.75978
rtibia 34.2839
rfoot 337.889 -13.6328
rtoes -10.4493
lfemur -34.5355 -19.8986 -9.70803
ltibia 39.2321
lfoot -18.7066 5.41903
ltoes -1.03772
85
root 4.80242 17.1203 0.80299 -7.9041 -86.5044 15.8701
lowerback 40.2448 0.418786 -1.10615
upperback 9.26609 -1.61498 -3.55337
thorax -9.21631 -1.17388 -2.48236
lowerneck 3.77378 -1.42074 -0.703853
upperneck -8.48688 -1.56317 5.68736
head -3.36313 -1.01686 2.06496
rclavicle 1.03368e-014 4.77083e-015
rhumerus -18.8222 17.9459 -103.389
rradius 55.5502
rwrist 18.535
rhand -41.6672 4.53433
rfingers 7.12502
rthumb -14.5746 335.066
lclavicle 1.03368e-014 4.77083e-015
lhumerus -193.918 197.753 -75.6938
lradius 52.945
lwrist 27.0534
lhand -29.7771 14.8583
lfingers 7.12502
lthumb -3.10216 44.8155
rfemur -26.5669 4.87826 10.0457
rtibia 35.4235
rfoot 337.829 -13.1445
rtoes -10.6113
lfemur -35.2636 -19.4561 -9.48421
ltibia 40.097
lfoot -18.7477 4.89993
ltoes -1.18268
